<?xml version="1.0" encoding="UTF-8"?>
<svg version="1.1" xmlns="http://www.w3.org/2000/svg" width="910" height="199">
<path d="M0 0 C18.48 0 36.96 0 56 0 C56 0.66 56 1.32 56 2 C59.63 2 63.26 2 67 2 C67 2.66 67 3.32 67 4 C71.29 4.33 75.58 4.66 80 5 C80 5.66 80 6.32 80 7 C81.32 7 82.64 7 84 7 C84 7.66 84 8.32 84 9 C85.32 9 86.64 9 88 9 C88 9.66 88 10.32 88 11 C89.32 11 90.64 11 92 11 C92 11.66 92 12.32 92 13 C92.66 13 93.32 13 94 13 C94 13.66 94 14.32 94 15 C95.32 15 96.64 15 98 15 C98 15.66 98 16.32 98 17 C98.66 17 99.32 17 100 17 C100 17.66 100 18.32 100 19 C100.66 19 101.32 19 102 19 C102 19.66 102 20.32 102 21 C102.66 21 103.32 21 104 21 C104 21.66 104 22.32 104 23 C104.66 23 105.32 23 106 23 C106 23.66 106 24.32 106 25 C106.66 25 107.32 25 108 25 C108 25.66 108 26.32 108 27 C108.66 27 109.32 27 110 27 C110 28.32 110 29.64 110 31 C110.66 31 111.32 31 112 31 C112 31.66 112 32.32 112 33 C112.66 33 113.32 33 114 33 C114 34.32 114 35.64 114 37 C114.66 37 115.32 37 116 37 C116 38.32 116 39.64 116 41 C116.66 41 117.32 41 118 41 C118 42.98 118 44.96 118 47 C118.66 47 119.32 47 120 47 C120 48.98 120 50.96 120 53 C120.66 53 121.32 53 122 53 C122.87876945 61.72564016 123.15349409 70.35831967 123.125 79.125 C123.12886719 80.32253906 123.13273438 81.52007812 123.13671875 82.75390625 C123.12605804 92.48713567 122.60974615 101.60491387 120 111 C119.34 111 118.68 111 118 111 C118 112.32 118 113.64 118 115 C117.34 115 116.68 115 116 115 C116 116.98 116 118.96 116 121 C115.34 121 114.68 121 114 121 C114 121.66 114 122.32 114 123 C113.34 123 112.68 123 112 123 C112 124.32 112 125.64 112 127 C111.34 127 110.68 127 110 127 C110 127.66 110 128.32 110 129 C109.34 129 108.68 129 108 129 C108 130.32 108 131.64 108 133 C107.34 133 106.68 133 106 133 C106 133.66 106 134.32 106 135 C105.34 135 104.68 135 104 135 C104 135.66 104 136.32 104 137 C103.34 137 102.68 137 102 137 C102 137.66 102 138.32 102 139 C101.34 139 100.68 139 100 139 C100 139.66 100 140.32 100 141 C98.68 141 97.36 141 96 141 C96 141.66 96 142.32 96 143 C95.34 143 94.68 143 94 143 C94 143.66 94 144.32 94 145 C92.68 145 91.36 145 90 145 C90 145.66 90 146.32 90 147 C82.71428571 151.57142857 82.71428571 151.57142857 78 151 C78 151.66 78 152.32 78 153 C76.02 153 74.04 153 72 153 C72 153.66 72 154.32 72 155 C70.02 155 68.04 155 66 155 C66 155.66 66 156.32 66 157 C62.04 157 58.08 157 54 157 C54 157.66 54 158.32 54 159 C36.18 159 18.36 159 0 159 C0 137.22 0 115.44 0 93 C7.26 93 14.52 93 22 93 C22 92.34 22 91.68 22 91 C22.66 91 23.32 91 24 91 C24 91.66 24 92.32 24 93 C26.64 93 29.28 93 32 93 C32 104.55 32 116.1 32 128 C37.61 128 43.22 128 49 128 C49 127.34 49 126.68 49 126 C52.3 126 55.6 126 59 126 C59 125.34 59 124.68 59 124 C62.50776784 122.39644899 65.14354879 121.77963136 69 122 C69 121.34 69 120.68 69 120 C69.66 120 70.32 120 71 120 C71 119.34 71 118.68 71 118 C72.32 118 73.64 118 75 118 C75 117.34 75 116.68 75 116 C75.66 116 76.32 116 77 116 C77 115.34 77 114.68 77 114 C77.66 114 78.32 114 79 114 C79 113.34 79 112.68 79 112 C79.66 112 80.32 112 81 112 C81 110.68 81 109.36 81 108 C81.66 108 82.32 108 83 108 C83 107.34 83 106.68 83 106 C83.66 106 84.32 106 85 106 C85 104.68 85 103.36 85 102 C85.66 102 86.32 102 87 102 C87 100.02 87 98.04 87 96 C87.66 96 88.32 96 89 96 C89 91.71 89 87.42 89 83 C89.66 83 90.32 83 91 83 C91 80.03 91 77.06 91 74 C90.34 74 89.68 74 89 74 C89 70.04 89 66.08 89 62 C88.34 62 87.68 62 87 62 C87 60.02 87 58.04 87 56 C86.34 56 85.68 56 85 56 C85 55.34 85 54.68 85 54 C84.34 54 83.68 54 83 54 C83 52.68 83 51.36 83 50 C82.34 50 81.68 50 81 50 C81 49.34 81 48.68 81 48 C80.34 48 79.68 48 79 48 C79 47.34 79 46.68 79 46 C78.34 46 77.68 46 77 46 C77 45.34 77 44.68 77 44 C76.34 44 75.68 44 75 44 C75 43.34 75 42.68 75 42 C74.34 42 73.68 42 73 42 C73 41.34 73 40.68 73 40 C72.34 40 71.68 40 71 40 C71 39.34 71 38.68 71 38 C69.68 38 68.36 38 67 38 C67 37.34 67 36.68 67 36 C65.68 36 64.36 36 63 36 C63 35.34 63 34.68 63 34 C61.02 34 59.04 34 57 34 C57 33.34 57 32.68 57 32 C54.36 32 51.72 32 49 32 C49 31.34 49 30.68 49 30 C43.39 30 37.78 30 32 30 C32 41.88 32 53.76 32 66 C21.44 66 10.88 66 0 66 C-0.33 48.18 -0.66 30.36 -1 12 C-2.65 12 -4.3 12 -6 12 C-6.04241723 9.66705225 -6.04092937 7.33297433 -6 5 C-5 4 -5 4 -2.4375 3.9375 C-1.2309375 3.9684375 -1.2309375 3.9684375 0 4 C0 2.68 0 1.36 0 0 Z " fill="#FDFDFD" transform="translate(100,29)"/>
<path d="M0 0 C25.74 0 51.48 0 78 0 C78 9.9 78 19.8 78 30 C62.82 30 47.64 30 32 30 C32 30.99 32 31.98 32 33 C32.66 33 33.32 33 34 33 C34 42.57 34 52.14 34 62 C54.79 62.33 75.58 62.66 97 63 C97 72.9 97 82.8 97 93 C96.34 93 95.68 93 95 93 C95 93.66 95 94.32 95 95 C74.87 95.33 54.74 95.66 34 96 C34 105.57 34 115.14 34 125 C33.34 125 32.68 125 32 125 C32 125.99 32 126.98 32 128 C47.18 128 62.36 128 78 128 C78.020625 132.929375 78.04125 137.85875 78.0625 142.9375 C78.071604 144.49460693 78.08070801 146.05171387 78.09008789 147.65600586 C78.09258545 148.87167236 78.09508301 150.08733887 78.09765625 151.33984375 C78.10289307 152.59144287 78.10812988 153.84304199 78.11352539 155.13256836 C78 158 78 158 77 159 C51.59 159 26.18 159 0 159 C0 106.53 0 54.06 0 0 Z " fill="#FEFEFE" transform="translate(227,29)"/>
<path d="M0 0 C25.08 0 50.16 0 76 0 C76 9.9 76 19.8 76 30 C61.81 30 47.62 30 33 30 C33 40.89 33 51.78 33 63 C53.79 63 74.58 63 96 63 C96 72.9 96 82.8 96 93 C95.34 93 94.68 93 94 93 C94 93.66 94 94.32 94 95 C73.87 95 53.74 95 33 95 C33 105.89 33 116.78 33 128 C47.19 128 61.38 128 76 128 C76 138.23 76 148.46 76 159 C50.92 159 25.84 159 0 159 C0 106.53 0 54.06 0 0 Z " fill="#FEFEFE" transform="translate(545,29)"/>
<path d="M0 0 C25.74 0 51.48 0 78 0 C78 9.9 78 19.8 78 30 C63.15 30 48.3 30 33 30 C33 31.32 33 32.64 33 34 C33.66 34 34.32 34 35 34 C35 42.58 35 51.16 35 60 C34.34 60 33.68 60 33 60 C33 60.99 33 61.98 33 63 C54.45 63 75.9 63 98 63 C98 72.9 98 82.8 98 93 C97.34 93 96.68 93 96 93 C96 93.66 96 94.32 96 95 C75.21 95 54.42 95 33 95 C33 95.66 33 96.32 33 97 C33.66 97 34.32 97 35 97 C35.02312764 104.93613787 35.04091723 112.87226176 35.05181217 120.80842495 C35.05704008 124.49314498 35.06413605 128.17784203 35.07543945 131.86254883 C35.08627162 135.41570831 35.09227753 138.96884563 35.09487724 142.52202034 C35.0967309 143.88045666 35.10035038 145.23889171 35.10573006 146.59731865 C35.11294475 148.49382223 35.11340809 150.39034793 35.11352539 152.28686523 C35.115746 153.36830307 35.11796661 154.44974091 35.12025452 155.56394958 C35 158 35 158 34 159 C22.78 159 11.56 159 0 159 C0 106.53 0 54.06 0 0 Z " fill="#FEFEFE" transform="translate(444,29)"/>
<path d="M0 0 C9.24 0 18.48 0 28 0 C28 0.66 28 1.32 28 2 C30.64 2 33.28 2 36 2 C36 2.66 36 3.32 36 4 C36.9075 4.12375 37.815 4.2475 38.75 4.375 C41.58970323 4.92109677 43.52590591 5.57263803 46 7 C46 7.66 46 8.32 46 9 C46.66 9 47.32 9 48 9 C48 9.66 48 10.32 48 11 C48.66 11 49.32 11 50 11 C50 11.66 50 12.32 50 13 C50.66 13 51.32 13 52 13 C52 13.66 52 14.32 52 15 C52.66 15 53.32 15 54 15 C54 15.66 54 16.32 54 17 C54.66 17 55.32 17 56 17 C56 17.99 56 18.98 56 20 C56.66 20 57.32 20 58 20 C58 20.99 58 21.98 58 23 C58.66 23 59.32 23 60 23 C60 24.98 60 26.96 60 29 C60.66 29 61.32 29 62 29 C62 30.98 62 32.96 62 35 C62.66 35 63.32 35 64 35 C64 39.29 64 43.58 64 48 C53.77 48 43.54 48 33 48 C33 47.34 33 46.68 33 46 C32.34 46 31.68 46 31 46 C31 43.36 31 40.72 31 38 C30.34 38 29.68 38 29 38 C29 37.34 29 36.68 29 36 C28.34 36 27.68 36 27 36 C27 35.34 27 34.68 27 34 C26.34 34 25.68 34 25 34 C25 33.34 25 32.68 25 32 C23.68 32 22.36 32 21 32 C21 31.34 21 30.68 21 30 C16.05 30 11.1 30 6 30 C6 30.66 6 31.32 6 32 C4.68 32 3.36 32 2 32 C2 32.66 2 33.32 2 34 C1.34 34 0.68 34 0 34 C0 34.66 0 35.32 0 36 C-0.66 36 -1.32 36 -2 36 C-2 37.32 -2 38.64 -2 40 C-2.66 40 -3.32 40 -4 40 C-4 44.95 -4 49.9 -4 55 C-3.34 55 -2.68 55 -2 55 C-2 55.66 -2 56.32 -2 57 C-1.34 57 -0.68 57 0 57 C0 57.66 0 58.32 0 59 C0.66 59 1.32 59 2 59 C2 59.66 2 60.32 2 61 C3.32 61 4.64 61 6 61 C6 61.66 6 62.32 6 63 C9.3 63 12.6 63 16 63 C16 63.66 16 64.32 16 65 C19.96 65 23.92 65 28 65 C28 65.66 28 66.32 28 67 C29.98 67 31.96 67 34 67 C34 67.66 34 68.32 34 69 C35.98 69 37.96 69 40 69 C40 69.66 40 70.32 40 71 C41.32 71 42.64 71 44 71 C44 71.66 44 72.32 44 73 C44.66 73 45.32 73 46 73 C46 73.66 46 74.32 46 75 C46.66 75 47.32 75 48 75 C48 75.66 48 76.32 48 77 C48.66 77 49.32 77 50 77 C50 77.66 50 78.32 50 79 C50.66 79 51.32 79 52 79 C52 79.66 52 80.32 52 81 C52.66 81 53.32 81 54 81 C54 81.66 54 82.32 54 83 C54.66 83 55.32 83 56 83 C56 83.66 56 84.32 56 85 C56.66 85 57.32 85 58 85 C58 86.32 58 87.64 58 89 C58.66 89 59.32 89 60 89 C60 90.32 60 91.64 60 93 C60.66 93 61.32 93 62 93 C63.61109365 97.25351021 64.24026702 100.73303096 64.1953125 105.2734375 C64.18886719 106.42714844 64.18242188 107.58085937 64.17578125 108.76953125 C64.15064453 110.55423828 64.15064453 110.55423828 64.125 112.375 C64.11597656 113.58800781 64.10695313 114.80101562 64.09765625 116.05078125 C64.07416588 119.03405773 64.04131682 122.01692594 64 125 C63.34 125 62.68 125 62 125 C62 126.98 62 128.96 62 131 C61.34 131 60.68 131 60 131 C60 132.32 60 133.64 60 135 C59.34 135 58.68 135 58 135 C58 136.32 58 137.64 58 139 C57.34 139 56.68 139 56 139 C56 139.66 56 140.32 56 141 C55.34 141 54.68 141 54 141 C54 141.66 54 142.32 54 143 C53.34 143 52.68 143 52 143 C52 143.66 52 144.32 52 145 C51.34 145 50.68 145 50 145 C50 145.66 50 146.32 50 147 C49.34 147 48.68 147 48 147 C48 147.66 48 148.32 48 149 C47.34 149 46.68 149 46 149 C46 149.66 46 150.32 46 151 C45.34 151 44.68 151 44 151 C44 151.66 44 152.32 44 153 C42.68 153 41.36 153 40 153 C40 153.66 40 154.32 40 155 C38.02 155 36.04 155 34 155 C34 155.66 34 156.32 34 157 C32.02 157 30.04 157 28 157 C28 157.66 28 158.32 28 159 C23.05 159 18.1 159 13 159 C13 148.77 13 138.54 13 128 C15.64 128 18.28 128 21 128 C21 127.34 21 126.68 21 126 C22.32 126 23.64 126 25 126 C25 125.34 25 124.68 25 124 C25.66 124 26.32 124 27 124 C27 123.34 27 122.68 27 122 C27.66 122 28.32 122 29 122 C29 121.34 29 120.68 29 120 C29.66 120 30.32 120 31 120 C31 118.02 31 116.04 31 114 C31.66 114 32.32 114 33 114 C33 112.35 33 110.7 33 109 C32.34 109 31.68 109 31 109 C31 107.02 31 105.04 31 103 C30.34 103 29.68 103 29 103 C29 102.34 29 101.68 29 101 C28.34 101 27.68 101 27 101 C27 100.34 27 99.68 27 99 C26.34 99 25.68 99 25 99 C25 98.34 25 97.68 25 97 C23.68 97 22.36 97 21 97 C21 96.34 21 95.68 21 95 C18.36 95 15.72 95 13 95 C13 94.34 13 93.68 13 93 C8.71 93 4.42 93 0 93 C0 92.34 0 91.68 0 91 C-1.98 91 -3.96 91 -6 91 C-6 90.34 -6 89.68 -6 89 C-7.32 89 -8.64 89 -10 89 C-10 88.34 -10 87.68 -10 87 C-11.32 87 -12.64 87 -14 87 C-14 86.34 -14 85.68 -14 85 C-15.98 84.67 -17.96 84.34 -20 84 C-20 83.34 -20 82.68 -20 82 C-20.66 82 -21.32 82 -22 82 C-22 81.34 -22 80.68 -22 80 C-22.66 80 -23.32 80 -24 80 C-24 79.34 -24 78.68 -24 78 C-24.66 78 -25.32 78 -26 78 C-26 77.34 -26 76.68 -26 76 C-26.66 76 -27.32 76 -28 76 C-28 75.34 -28 74.68 -28 74 C-28.66 74 -29.32 74 -30 74 C-30 72.68 -30 71.36 -30 70 C-30.66 70 -31.32 70 -32 70 C-32 68.68 -32 67.36 -32 66 C-32.66 66 -33.32 66 -34 66 C-34 64.02 -34 62.04 -34 60 C-34.66 60 -35.32 60 -36 60 C-36 51.75 -36 43.5 -36 35 C-35.34 35 -34.68 35 -34 35 C-34 33.02 -34 31.04 -34 29 C-33.34 29 -32.68 29 -32 29 C-32 27.68 -32 26.36 -32 25 C-31.34 25 -30.68 25 -30 25 C-30 23.68 -30 22.36 -30 21 C-29.34 21 -28.68 21 -28 21 C-28 19.68 -28 18.36 -28 17 C-27.34 17 -26.68 17 -26 17 C-26 16.34 -26 15.68 -26 15 C-25.34 15 -24.68 15 -24 15 C-24 14.34 -24 13.68 -24 13 C-23.34 13 -22.68 13 -22 13 C-22 12.34 -22 11.68 -22 11 C-21.34 11 -20.68 11 -20 11 C-20 10.34 -20 9.68 -20 9 C-18.68 9 -17.36 9 -16 9 C-16 8.34 -16 7.68 -16 7 C-15.34 7 -14.68 7 -14 7 C-14 6.34 -14 5.68 -14 5 C-11.36 4.67 -8.72 4.34 -6 4 C-6 3.34 -6 2.68 -6 2 C-4.02 2 -2.04 2 0 2 C0 1.34 0 0.68 0 0 Z " fill="#FDFDFD" transform="translate(680,29)"/>
<path d="M0 0 C11.55 0 23.1 0 35 0 C35 1.32 35 2.64 35 4 C35.66 4 36.32 4 37 4 C37 5.65 37 7.3 37 9 C37.66 9 38.32 9 39 9 C39 10.98 39 12.96 39 15 C39.66 15 40.32 15 41 15 C41 16.98 41 18.96 41 21 C41.66 21 42.32 21 43 21 C43 22.98 43 24.96 43 27 C43.66 27 44.32 27 45 27 C45 28.32 45 29.64 45 31 C45.66 31 46.32 31 47 31 C47 32.98 47 34.96 47 37 C47.66 37 48.32 37 49 37 C49 38.98 49 40.96 49 43 C49.66 43 50.32 43 51 43 C51 44.98 51 46.96 51 49 C51.66 49 52.32 49 53 49 C53 50.98 53 52.96 53 55 C53.66 55 54.32 55 55 55 C55 56.32 55 57.64 55 59 C55.66 59 56.32 59 57 59 C57 60.98 57 62.96 57 65 C57.66 65 58.32 65 59 65 C59 66.98 59 68.96 59 71 C59.66 71 60.32 71 61 71 C61 72.98 61 74.96 61 77 C61.66 77 62.32 77 63 77 C63.33 78.32 63.66 79.64 64 81 C64.66 81 65.32 81 66 81 C66 79.68 66 78.36 66 77 C66.66 77 67.32 77 68 77 C68 75.02 68 73.04 68 71 C68.66 71 69.32 71 70 71 C70 69.02 70 67.04 70 65 C70.66 65 71.32 65 72 65 C72 63.02 72 61.04 72 59 C72.66 59 73.32 59 74 59 C74 57.02 74 55.04 74 53 C74.66 53 75.32 53 76 53 C76 51.68 76 50.36 76 49 C76.66 49 77.32 49 78 49 C78 47.02 78 45.04 78 43 C78.66 43 79.32 43 80 43 C80 41.02 80 39.04 80 37 C80.66 37 81.32 37 82 37 C82 35.02 82 33.04 82 31 C82.66 31 83.32 31 84 31 C84 29.68 84 28.36 84 27 C94.56 27 105.12 27 116 27 C116 29.31 116 31.62 116 34 C115.34 34 114.68 34 114 34 C114 35.98 114 37.96 114 40 C113.34 40 112.68 40 112 40 C112 41.32 112 42.64 112 44 C111.34 44 110.68 44 110 44 C110 45.98 110 47.96 110 50 C109.34 50 108.68 50 108 50 C108 51.32 108 52.64 108 54 C107.34 54 106.68 54 106 54 C106 55.98 106 57.96 106 60 C105.34 60 104.68 60 104 60 C104 61.98 104 63.96 104 66 C103.34 66 102.68 66 102 66 C102 67.32 102 68.64 102 70 C101.34 70 100.68 70 100 70 C100 71.98 100 73.96 100 76 C99.34 76 98.68 76 98 76 C98 77.32 98 78.64 98 80 C97.34 80 96.68 80 96 80 C96 81.65 96 83.3 96 85 C95.34 85 94.68 85 94 85 C94 86.98 94 88.96 94 91 C93.34 91 92.68 91 92 91 C92 92.32 92 93.64 92 95 C91.34 95 90.68 95 90 95 C90 96.98 90 98.96 90 101 C89.34 101 88.68 101 88 101 C88 102.32 88 103.64 88 105 C87.34 105 86.68 105 86 105 C86 106.98 86 108.96 86 111 C85.34 111 84.68 111 84 111 C84 112.32 84 113.64 84 115 C83.34 115 82.68 115 82 115 C82 116.98 82 118.96 82 121 C81.34 121 80.68 121 80 121 C80 122.98 80 124.96 80 127 C79.34 127 78.68 127 78 127 C77.67 130.3 77.34 133.6 77 137 C76.34 137 75.68 137 75 137 C75 138.32 75 139.64 75 141 C74.34 141 73.68 141 73 141 C73 142.98 73 144.96 73 147 C72.34 147 71.68 147 71 147 C70.87625 147.721875 70.7525 148.44375 70.625 149.1875 C69.75211827 153.11546779 68.8736676 156.1263324 66 159 C62.875 159.125 62.875 159.125 60 159 C60 157.02 60 155.04 60 153 C59.34 153 58.68 153 58 153 C58 151.02 58 149.04 58 147 C57.34 147 56.68 147 56 147 C56 145.68 56 144.36 56 143 C55.34 143 54.68 143 54 143 C54 141.02 54 139.04 54 137 C53.34 137 52.68 137 52 137 C52 135.68 52 134.36 52 133 C51.34 133 50.68 133 50 133 C50 131.02 50 129.04 50 127 C49.34 127 48.68 127 48 127 C48 125.02 48 123.04 48 121 C47.34 121 46.68 121 46 121 C46 119.68 46 118.36 46 117 C45.34 117 44.68 117 44 117 C44 115.02 44 113.04 44 111 C43.34 111 42.68 111 42 111 C42 109.68 42 108.36 42 107 C41.34 107 40.68 107 40 107 C40 105.02 40 103.04 40 101 C39.34 101 38.68 101 38 101 C38 99.02 38 97.04 38 95 C37.34 95 36.68 95 36 95 C36 93.68 36 92.36 36 91 C35.34 91 34.68 91 34 91 C34 89.02 34 87.04 34 85 C33.34 85 32.68 85 32 85 C32 84.01 32 83.02 32 82 C31.34 82 30.68 82 30 82 C30 80.02 30 78.04 30 76 C29.34 76 28.68 76 28 76 C28 74.02 28 72.04 28 70 C27.34 70 26.68 70 26 70 C26 68.68 26 67.36 26 66 C25.34 66 24.68 66 24 66 C24 64.02 24 62.04 24 60 C23.34 60 22.68 60 22 60 C22 58.68 22 57.36 22 56 C21.34 56 20.68 56 20 56 C20 54.02 20 52.04 20 50 C19.34 50 18.68 50 18 50 C18 48.02 18 46.04 18 44 C17.34 44 16.68 44 16 44 C16 42.68 16 41.36 16 40 C15.34 40 14.68 40 14 40 C14 38.02 14 36.04 14 34 C13.34 34 12.68 34 12 34 C12 32.68 12 31.36 12 30 C11.34 30 10.68 30 10 30 C10 28.02 10 26.04 10 24 C9.34 24 8.68 24 8 24 C8 22.02 8 20.04 8 18 C7.34 18 6.68 18 6 18 C6 16.68 6 15.36 6 14 C5.34 14 4.68 14 4 14 C4 12.02 4 10.04 4 8 C3.34 8 2.68 8 2 8 C2 6.68 2 5.36 2 4 C1.34 4 0.68 4 0 4 C0 2.68 0 1.36 0 0 Z " fill="#FDFDFD" transform="translate(325,29)"/>
<path d="M0 0 C10.89 0 21.78 0 33 0 C33 33.66 33 67.32 33 102 C22.11 102 11.22 102 0 102 C0 68.34 0 34.68 0 0 Z " fill="#FEFEFE" transform="translate(780,86)"/>
<path d="M0 0 C32.34 0 64.68 0 98 0 C98 9.24 98 18.48 98 28 C65.66 28 33.32 28 0 28 C0 18.76 0 9.52 0 0 Z " fill="#FEFEFE" transform="translate(747,29)"/>
<path d="M0 0 C0.66 0 1.32 0 2 0 C2 1.98 2 3.96 2 6 C1.34 6 0.68 6 0 6 C-0.33 7.98 -0.66 9.96 -1 12 C-2.65 12 -4.3 12 -6 12 C-6.04241723 9.66705225 -6.04092937 7.33297433 -6 5 C-5 4 -5 4 -2.4375 3.9375 C-1.2309375 3.9684375 -1.2309375 3.9684375 0 4 C0 2.68 0 1.36 0 0 Z " fill="#6E7D7D" transform="translate(100,29)"/>
<path d="M0 0 C0.99 0.33 1.98 0.66 3 1 C2.67 2.65 2.34 4.3 2 6 C1.01 6 0.02 6 -1 6 C-1.042721 4.33388095 -1.04063832 2.66617115 -1 1 C-0.67 0.67 -0.34 0.34 0 0 Z " fill="#1A1D1E" transform="translate(95,33)"/>
<path d="M0 0 C0.66 0 1.32 0 2 0 C1.34 3.3 0.68 6.6 0 10 C-0.66 10 -1.32 10 -2 10 C-2 8.68 -2 7.36 -2 6 C-1.34 6 -0.68 6 0 6 C0 4.02 0 2.04 0 0 Z " fill="#DBDFE0" transform="translate(102,29)"/>
<path d="M0 0 C0.66 0 1.32 0 2 0 C2 0.66 2 1.32 2 2 C1.34 2 0.68 2 0 2 C0 1.34 0 0.68 0 0 Z " fill="#000000" transform="translate(148,150)"/>
<path d="M0 0 C0.66 0 1.32 0 2 0 C2 0.66 2 1.32 2 2 C1.34 2 0.68 2 0 2 C0 1.34 0 0.68 0 0 Z " fill="#000000" transform="translate(678,148)"/>
<path d="M0 0 C0.66 0 1.32 0 2 0 C2 0.66 2 1.32 2 2 C1.34 2 0.68 2 0 2 C0 1.34 0 0.68 0 0 Z " fill="#000000" transform="translate(674,140)"/>
<path d="M0 0 C0.66 0 1.32 0 2 0 C2 0.66 2 1.32 2 2 C1.34 2 0.68 2 0 2 C0 1.34 0 0.68 0 0 Z " fill="#000000" transform="translate(791,25)"/>
<path d="" fill="#000000" transform="translate(0,0)"/>
<path d="M0 0 C2 1 2 1 2 1 Z " fill="#000000" transform="translate(581,81)"/>
<path d="" fill="#000000" transform="translate(0,0)"/>
<path d="" fill="#000000" transform="translate(0,0)"/>
</svg>
